# xmcd
#
# Track frame offsets: 
#        150
#        13134
#        27046
#        40589
#        53567
#        67241
#        79279
#        93298
#        105500
#        119755
#        133154
#        147729
#        162327
#        174201
#        186136
#        198791
#        212868
#        226205
#        246054
#        261346
#        273548
#        288799
#
# Disc length: 4038 seconds
#
# Revision: 2
# Processed by: cddbd v1.5.2PL0 Copyright (c) Steve Scherf et al.
# Submitted via: ExactAudioCopy v1.0b1
#
DISCID=3f0fc416
DTITLE=Fats Waller - If You Got To Ask, You Ain't Got It! - CD2 - Fats
DTITLE=Waller Strictly Instrumental
DYEAR=2006
DGENRE=Jazz
TTITLE0=St. Louis Blues
TTITLE1='sippi
TTITLE2=Thou Swell
TTITLE3=Numb Fumblin'
TTITLE4=Ain't Misbehavin'
TTITLE5=Love Me Or Leave Me
TTITLE6=Smashin' Thirds
TTITLE7=My Fate Is In Your Hands
TTITLE8=African Ripples
TTITLE9=Viper's Drag
TTITLE10=Keepin' Out Of Mischief Now
TTITLE11=Star Dust
TTITLE12=Carolina Shout
TTITLE13=Serenade For A Wealthy Widow
TTITLE14=Rosetta
TTITLE15=Functionizin'
TTITLE16=Loungin' At The Waldorf
TTITLE17=Blue, Turnin' Grey Over You
TTITLE18=In The Gloamin'
TTITLE19=Mamacita
TTITLE20=The Jitterbug Waltz
TTITLE21=Honeysuckle Rose
EXTD=
EXTT0=
EXTT1=
EXTT2=
EXTT3=
EXTT4=
EXTT5=
EXTT6=
EXTT7=
EXTT8=
EXTT9=
EXTT10=
EXTT11=
EXTT12=
EXTT13=
EXTT14=
EXTT15=
EXTT16=
EXTT17=
EXTT18=
EXTT19=
EXTT20=
EXTT21=
PLAYORDER=
